<svg width="479" height="4496" viewBox="0 0 479 4496" fill="none" xmlns="http://www.w3.org/2000/svg">
<g clip-path="url(#clip0_148_197)">
<rect width="2000" height="4382" transform="translate(-760 -600)" fill="url(#paint0_radial_148_197)"/>
<path fill-rule="evenodd" clip-rule="evenodd" d="M95.0701 0.101562C24.7163 0.101562 -35.484 39.4275 -60.1346 95.1053C-70.0083 82.2455 -86.4539 73.8262 -105.073 73.8262C-135.27 73.8262 -159.75 95.971 -159.75 123.288C-159.75 123.554 -159.748 123.819 -159.743 124.084C-201.144 130.604 -235.738 155.057 -253.387 188.273C-262.996 186.66 -272.904 185.816 -283.03 185.816C-343.197 185.816 -395.677 215.59 -423.449 259.738C-508.723 263.681 -576.523 327.477 -576.523 405.598C-576.523 433.802 -567.686 460.14 -552.379 482.467V2417.89H1028.19V583.281C1055.25 546.074 1071 501.53 1071 453.66C1071 384.19 1037.83 321.727 985.045 278.522C985.26 276.422 985.369 274.294 985.369 272.142C985.369 237.7 957.308 209.187 920.74 204.291C914.742 156.089 869.528 118.625 814.641 118.625C776.937 118.625 743.797 136.304 724.798 163C710.972 146.259 688.893 135.422 664.016 135.422C647.802 135.422 632.777 140.026 620.45 147.867C594.136 139.798 565.937 135.422 536.609 135.422C533.298 135.422 530.002 135.478 526.721 135.588C513.739 114.967 489.277 101.028 461.203 100.892C447.382 87.6741 427.81 79.4277 406.11 79.4277C395.096 79.4277 384.63 81.5523 375.186 85.3731C362.169 64.5509 337.468 50.4961 309.138 50.4961C281.737 50.4961 257.732 63.6435 244.409 83.3451C216.905 33.97 160.36 0.101562 95.0701 0.101562Z" fill="url(#paint1_linear_148_197)"/>
<g filter="url(#filter0_d_148_197)">
<path fill-rule="evenodd" clip-rule="evenodd" d="M95.0701 21C24.7163 21 -35.484 60.326 -60.1346 116.004C-70.0083 103.144 -86.4539 94.7246 -105.073 94.7246C-135.27 94.7246 -159.75 116.869 -159.75 144.187C-159.75 144.452 -159.748 144.717 -159.743 144.982C-201.144 151.502 -235.738 175.956 -253.387 209.171C-262.996 207.558 -272.904 206.715 -283.03 206.715C-343.197 206.715 -395.677 236.488 -423.449 280.637C-508.723 284.579 -576.523 348.375 -576.523 426.496C-576.523 454.701 -567.686 481.038 -552.379 503.366V2438.79H1028.19V604.18C1055.25 566.972 1071 522.429 1071 474.558C1071 405.088 1037.83 342.626 985.045 299.421C985.26 297.32 985.369 295.192 985.369 293.041C985.369 258.599 957.308 230.086 920.74 225.19C914.742 176.987 869.528 139.523 814.641 139.523C776.937 139.523 743.797 157.203 724.798 183.898C710.972 167.158 688.893 156.32 664.016 156.32C647.802 156.32 632.777 160.924 620.45 168.766C594.136 160.696 565.937 156.32 536.609 156.32C533.298 156.32 530.002 156.376 526.721 156.487C513.739 135.865 489.277 121.927 461.203 121.79C447.382 108.573 427.81 100.326 406.11 100.326C395.096 100.326 384.63 102.451 375.186 106.272C362.169 85.4493 337.468 71.3945 309.138 71.3945C281.737 71.3945 257.732 84.5419 244.409 104.244C216.905 54.8684 160.36 21 95.0701 21Z" fill="url(#paint2_linear_148_197)" shape-rendering="crispEdges"/>
</g>
</g>
<g clip-path="url(#clip1_148_197)">
<rect width="479" height="3647" transform="translate(0 361)" fill="url(#paint3_linear_148_197)"/>
<g clip-path="url(#clip2_148_197)">
<ellipse cx="239.809" cy="3495.97" rx="29.8485" ry="107.973" fill="#DDC3E9"/>
<path fill-rule="evenodd" clip-rule="evenodd" d="M269.287 3507.76C269.287 3554.63 261.03 3594.53 249.49 3609.46L265.288 3654.45H251.947L257.7 3670.4H245.915H242.688H234.508H230.903H219.495L225.249 3654.45H213.589L229.387 3609.46C217.847 3594.53 209.59 3554.63 209.59 3507.76C209.59 3448.13 222.953 3399.79 239.438 3399.79C255.923 3399.79 269.287 3448.13 269.287 3507.76ZM228.754 3654.45L232.705 3665.4L236.657 3654.45H228.754ZM240.161 3654.45L244.302 3665.93L248.442 3654.45H240.161Z" fill="url(#paint4_linear_148_197)"/>
<ellipse cx="101.597" cy="3968.35" rx="77.9451" ry="78.182" fill="url(#paint5_linear_148_197)"/>
<ellipse cx="-28.0549" cy="4007.99" rx="77.9451" ry="78.182" fill="url(#paint6_linear_148_197)"/>
<ellipse cx="378.019" cy="3968.35" rx="77.9451" ry="78.182" fill="url(#paint7_linear_148_197)"/>
<ellipse cx="498.929" cy="4004.19" rx="77.9451" ry="78.182" fill="url(#paint8_linear_148_197)"/>
<path fill-rule="evenodd" clip-rule="evenodd" d="M219.366 3670.12L173.94 3865.18C166.824 3862.47 159.109 3860.99 151.049 3860.99C115.351 3860.99 86.4115 3890.02 86.4115 3925.83C86.4115 3926.76 86.4313 3927.7 86.4707 3928.63C76.072 3921.46 63.4778 3917.26 49.9069 3917.26C14.2087 3917.26 -14.7305 3946.29 -14.7305 3982.1C-14.7305 4017.9 14.2087 4046.93 49.9069 4046.93C85.6051 4046.93 114.544 4017.9 114.544 3982.1C114.544 3981.16 114.524 3980.23 114.485 3979.3C124.884 3986.47 137.478 3990.66 151.049 3990.66C169.793 3990.66 186.673 3982.66 198.479 3969.87C209.998 3980.53 225.39 3987.04 242.297 3987.04C257.266 3987.04 271.047 3981.94 282.004 3973.37C293.536 3984.1 308.978 3990.66 325.947 3990.66C342.813 3990.66 358.17 3984.18 369.679 3973.57C370.2 4008.93 398.936 4037.43 434.309 4037.43C470.008 4037.43 498.947 4008.4 498.947 3972.59C498.947 3936.79 470.008 3907.76 434.309 3907.76C417.444 3907.76 402.086 3914.24 390.577 3924.85C390.057 3889.49 361.32 3860.99 325.947 3860.99C318.622 3860.99 311.581 3862.21 305.016 3864.47L257.699 3670.12H219.366ZM193.811 3877.21H195.768C195.464 3877.52 195.164 3877.84 194.867 3878.16C194.518 3877.84 194.166 3877.52 193.811 3877.21Z" fill="url(#paint9_linear_148_197)"/>
<path fill-rule="evenodd" clip-rule="evenodd" d="M-105.622 4056.42V4040.92C-105.872 4043.47 -106 4046.05 -106 4048.67C-106 4051.29 -105.872 4053.87 -105.622 4056.42ZM-94.6478 4008.02C-80.9634 3985.51 -56.2585 3970.49 -28.0549 3970.49C-6.36961 3970.49 13.2474 3979.37 27.3769 3993.71C36.1966 3960.23 66.5953 3935.55 102.74 3935.55C113.826 3935.55 124.371 3937.88 133.919 3942.06C150.059 3899.04 191.466 3868.43 240 3868.43C288.534 3868.43 329.94 3899.04 346.08 3942.06C355.629 3937.88 366.174 3935.55 377.261 3935.55C412.762 3935.55 442.721 3959.36 452.133 3991.93C466.297 3977.3 486.118 3968.21 508.056 3968.21C551.104 3968.21 586.001 4003.21 586.001 4046.39C586.001 4065.11 579.444 4082.29 568.508 4095.75V4008.02H-94.6478Z" fill="url(#paint10_linear_148_197)"/>
</g>
</g>
<rect width="479" height="483" transform="translate(0 4007)" fill="url(#paint11_linear_148_197)"/>
<defs>
<filter id="filter0_d_148_197" x="-580.523" y="21" width="1655.52" height="2425.79" filterUnits="userSpaceOnUse" color-interpolation-filters="sRGB">
<feFlood flood-opacity="0" result="BackgroundImageFix"/>
<feColorMatrix in="SourceAlpha" type="matrix" values="0 0 0 0 0 0 0 0 0 0 0 0 0 0 0 0 0 0 127 0" result="hardAlpha"/>
<feOffset dy="4"/>
<feGaussianBlur stdDeviation="2"/>
<feComposite in2="hardAlpha" operator="out"/>
<feColorMatrix type="matrix" values="0 0 0 0 0 0 0 0 0 0 0 0 0 0 0 0 0 0 0.25 0"/>
<feBlend mode="normal" in2="BackgroundImageFix" result="effect1_dropShadow_148_197"/>
<feBlend mode="normal" in="SourceGraphic" in2="effect1_dropShadow_148_197" result="shape"/>
</filter>
<radialGradient id="paint0_radial_148_197" cx="0" cy="0" r="1" gradientUnits="userSpaceOnUse" gradientTransform="translate(1000 961) rotate(180) scale(1000 358)">
<stop offset="0.817708" stop-color="#3A1C62"/>
<stop offset="1" stop-color="#0F0D64"/>
</radialGradient>
<linearGradient id="paint1_linear_148_197" x1="247.238" y1="0.101563" x2="247.238" y2="2628.39" gradientUnits="userSpaceOnUse">
<stop stop-color="white"/>
<stop offset="0.878625" stop-color="white" stop-opacity="0"/>
</linearGradient>
<linearGradient id="paint2_linear_148_197" x1="247.238" y1="21" x2="247.238" y2="2649.29" gradientUnits="userSpaceOnUse">
<stop stop-color="white"/>
<stop offset="0.878625" stop-color="white" stop-opacity="0"/>
</linearGradient>
<linearGradient id="paint3_linear_148_197" x1="239.5" y1="0" x2="239.5" y2="3647" gradientUnits="userSpaceOnUse">
<stop stop-color="#FAFAFB"/>
<stop offset="0.2776" stop-color="#E3D6E0"/>
<stop offset="0.520833" stop-color="#DC8E99"/>
<stop offset="0.697917" stop-color="#FEB4AD"/>
<stop offset="0.869792" stop-color="#F6E4E1"/>
<stop offset="1" stop-color="#FCBFB9"/>
</linearGradient>
<linearGradient id="paint4_linear_148_197" x1="240.199" y1="3388.75" x2="240.199" y2="3675.2" gradientUnits="userSpaceOnUse">
<stop stop-color="#020865"/>
<stop offset="1" stop-color="#3A1B61"/>
</linearGradient>
<linearGradient id="paint5_linear_148_197" x1="71.7501" y1="3918.78" x2="110.869" y2="3968.24" gradientUnits="userSpaceOnUse">
<stop stop-color="#C19789"/>
<stop offset="1" stop-color="#F6E4E1" stop-opacity="0"/>
</linearGradient>
<linearGradient id="paint6_linear_148_197" x1="-57.9022" y1="3958.41" x2="-18.7837" y2="4007.88" gradientUnits="userSpaceOnUse">
<stop stop-color="#C19789"/>
<stop offset="1" stop-color="#F6E4E1" stop-opacity="0"/>
</linearGradient>
<linearGradient id="paint7_linear_148_197" x1="410.338" y1="3890.17" x2="377.852" y2="3968.28" gradientUnits="userSpaceOnUse">
<stop stop-color="#C19789"/>
<stop offset="1" stop-color="#F6E4E1" stop-opacity="0"/>
</linearGradient>
<linearGradient id="paint8_linear_148_197" x1="531.248" y1="3926" x2="498.762" y2="4004.12" gradientUnits="userSpaceOnUse">
<stop stop-color="#C19789"/>
<stop offset="1" stop-color="#F6E4E1" stop-opacity="0"/>
</linearGradient>
<linearGradient id="paint9_linear_148_197" x1="239.637" y1="3815.81" x2="239.828" y2="3987.04" gradientUnits="userSpaceOnUse">
<stop stop-color="#F4F2F2"/>
<stop offset="1" stop-color="#F4F2F2" stop-opacity="0"/>
</linearGradient>
<linearGradient id="paint10_linear_148_197" x1="240" y1="3848.72" x2="240" y2="4062.93" gradientUnits="userSpaceOnUse">
<stop stop-color="#050965"/>
<stop offset="1" stop-color="#050965" stop-opacity="0"/>
</linearGradient>
<linearGradient id="paint11_linear_148_197" x1="239.5" y1="0" x2="239.5" y2="483" gradientUnits="userSpaceOnUse">
<stop stop-color="#FDBFB9"/>
<stop offset="0.193929" stop-color="#FEB3AC"/>
<stop offset="0.477234" stop-color="#BB7F92"/>
<stop offset="1" stop-color="#3E1E63"/>
</linearGradient>
<clipPath id="clip0_148_197">
<rect width="479" height="362" fill="white"/>
</clipPath>
<clipPath id="clip1_148_197">
<rect width="479" height="3647" fill="white" transform="translate(0 361)"/>
</clipPath>
<clipPath id="clip2_148_197">
<rect width="692" height="620.138" fill="white" transform="translate(-106 3388)"/>
</clipPath>
</defs>
</svg>
