<svg width="767" height="5629" viewBox="0 0 767 5629" fill="none" xmlns="http://www.w3.org/2000/svg">
<g clip-path="url(#clip0_147_100)">
<g clip-path="url(#clip1_147_100)">
<rect width="2000" height="4382" transform="translate(-616 -600)" fill="url(#paint0_radial_147_100)"/>
<path fill-rule="evenodd" clip-rule="evenodd" d="M239.07 0.101562C168.716 0.101562 108.516 39.4275 83.8654 95.1053C73.9917 82.2455 57.5461 73.8262 38.9266 73.8262C8.72955 73.8262 -15.75 95.971 -15.75 123.288C-15.75 123.554 -15.7477 123.819 -15.7431 124.084C-57.1439 130.604 -91.7381 155.057 -109.387 188.273C-118.996 186.66 -128.904 185.816 -139.03 185.816C-199.197 185.816 -251.677 215.59 -279.449 259.738C-364.723 263.681 -432.523 327.477 -432.523 405.598C-432.523 433.802 -423.686 460.14 -408.379 482.467V2417.89H1172.19V583.281C1199.25 546.074 1215 501.53 1215 453.66C1215 384.19 1181.83 321.727 1129.05 278.522C1129.26 276.422 1129.37 274.294 1129.37 272.142C1129.37 237.7 1101.31 209.187 1064.74 204.291C1058.74 156.089 1013.53 118.625 958.641 118.625C920.937 118.625 887.797 136.304 868.798 163C854.972 146.259 832.893 135.422 808.016 135.422C791.802 135.422 776.777 140.026 764.45 147.867C738.136 139.798 709.937 135.422 680.609 135.422C677.298 135.422 674.002 135.478 670.721 135.588C657.739 114.967 633.277 101.028 605.203 100.892C591.382 87.6741 571.81 79.4277 550.11 79.4277C539.096 79.4277 528.63 81.5523 519.186 85.3731C506.169 64.5509 481.468 50.4961 453.138 50.4961C425.737 50.4961 401.732 63.6435 388.409 83.3451C360.905 33.97 304.36 0.101562 239.07 0.101562Z" fill="url(#paint1_linear_147_100)"/>
<g filter="url(#filter0_d_147_100)">
<path fill-rule="evenodd" clip-rule="evenodd" d="M239.07 21C168.716 21 108.516 60.326 83.8654 116.004C73.9917 103.144 57.5461 94.7246 38.9266 94.7246C8.72955 94.7246 -15.75 116.869 -15.75 144.187C-15.75 144.452 -15.7477 144.717 -15.7431 144.982C-57.1439 151.502 -91.7381 175.956 -109.387 209.171C-118.996 207.558 -128.904 206.715 -139.03 206.715C-199.197 206.715 -251.677 236.488 -279.449 280.637C-364.723 284.579 -432.523 348.375 -432.523 426.496C-432.523 454.701 -423.686 481.038 -408.379 503.366V2438.79H1172.19V604.18C1199.25 566.972 1215 522.429 1215 474.558C1215 405.088 1181.83 342.626 1129.05 299.421C1129.26 297.32 1129.37 295.192 1129.37 293.041C1129.37 258.599 1101.31 230.086 1064.74 225.19C1058.74 176.987 1013.53 139.523 958.641 139.523C920.937 139.523 887.797 157.203 868.798 183.898C854.972 167.158 832.893 156.32 808.016 156.32C791.802 156.32 776.777 160.924 764.45 168.766C738.136 160.696 709.937 156.32 680.609 156.32C677.298 156.32 674.002 156.376 670.721 156.487C657.739 135.865 633.277 121.927 605.203 121.79C591.382 108.573 571.81 100.326 550.11 100.326C539.096 100.326 528.63 102.451 519.186 106.272C506.169 85.4493 481.468 71.3945 453.138 71.3945C425.737 71.3945 401.732 84.5419 388.409 104.244C360.905 54.8684 304.36 21 239.07 21Z" fill="url(#paint2_linear_147_100)" shape-rendering="crispEdges"/>
</g>
</g>
<g clip-path="url(#clip2_147_100)">
<rect width="767" height="4674" transform="translate(0 362)" fill="url(#paint3_linear_147_100)"/>
<g clip-path="url(#clip3_147_100)">
<ellipse cx="373.791" cy="4456.21" rx="33.1267" ry="119.831" fill="#DDC3E9"/>
<path fill-rule="evenodd" clip-rule="evenodd" d="M406.496 4469.29C406.496 4521.31 397.331 4565.59 384.524 4582.16L402.057 4632.09H387.254L393.64 4649.8H380.559H376.979H367.9H363.898H351.239L357.625 4632.09H344.68L362.214 4582.16C349.406 4565.59 340.242 4521.31 340.242 4469.29C340.242 4403.11 355.074 4349.46 373.369 4349.46C391.664 4349.46 406.496 4403.11 406.496 4469.29ZM361.513 4632.09L365.899 4644.25L370.284 4632.09H361.513ZM374.173 4632.09L378.769 4644.83L383.366 4632.09H374.173Z" fill="url(#paint4_linear_147_100)"/>
<ellipse cx="220.4" cy="4980.48" rx="86.5055" ry="86.7684" fill="url(#paint5_linear_147_100)"/>
<ellipse cx="76.5055" cy="5024.47" rx="86.5055" ry="86.7684" fill="url(#paint6_linear_147_100)"/>
<ellipse cx="527.177" cy="4980.48" rx="86.5055" ry="86.7684" fill="url(#paint7_linear_147_100)"/>
<ellipse cx="661.369" cy="5020.25" rx="86.5055" ry="86.7684" fill="url(#paint8_linear_147_100)"/>
<path fill-rule="evenodd" clip-rule="evenodd" d="M351.095 4649.48L300.679 4865.97C292.779 4862.96 284.213 4861.32 275.264 4861.32C235.645 4861.32 203.527 4893.53 203.527 4933.27C203.527 4934.31 203.549 4935.35 203.593 4936.38C192.053 4928.43 178.077 4923.77 163.018 4923.77C123.399 4923.77 91.2812 4955.99 91.2812 4995.73C91.2812 5035.47 123.399 5067.68 163.018 5067.68C202.636 5067.68 234.754 5035.47 234.754 4995.73C234.754 4994.69 234.732 4993.65 234.688 4992.62C246.228 5000.57 260.204 5005.23 275.264 5005.23C296.067 5005.23 314.802 4996.35 327.905 4982.16C340.689 4993.99 357.772 5001.22 376.538 5001.22C393.151 5001.22 408.445 4995.55 420.605 4986.04C433.404 4997.95 450.541 5005.23 469.374 5005.23C488.092 5005.23 505.136 4998.04 517.909 4986.26C518.486 5025.5 550.379 5057.13 589.637 5057.13C629.256 5057.13 661.374 5024.92 661.374 4985.18C661.374 4945.44 629.256 4913.22 589.637 4913.22C570.919 4913.22 553.875 4920.41 541.102 4932.19C540.525 4892.95 508.632 4861.32 469.374 4861.32C461.246 4861.32 453.435 4862.67 446.151 4865.17L393.638 4649.48H351.095ZM322.722 4879.31H324.9C324.562 4879.67 324.228 4880.02 323.897 4880.38C323.509 4880.02 323.118 4879.66 322.722 4879.31Z" fill="url(#paint9_linear_147_100)"/>
<path fill-rule="evenodd" clip-rule="evenodd" d="M-9.57802 5078.24V5060.99C-9.85712 5063.83 -10 5066.71 -10 5069.62C-10 5072.53 -9.85712 5075.4 -9.57802 5078.24ZM2.60309 5024.49C17.7913 4999.52 45.2073 4982.85 76.5055 4982.85C100.572 4982.85 122.344 4992.71 138.025 5008.62C147.813 4971.46 181.55 4944.08 221.666 4944.08C233.969 4944.08 245.673 4946.65 256.269 4951.3C274.182 4903.55 320.136 4869.58 374 4869.58C427.864 4869.58 473.818 4903.55 491.731 4951.3C502.327 4946.65 514.031 4944.08 526.334 4944.08C565.736 4944.08 598.985 4970.5 609.43 5006.64C625.15 4990.41 647.148 4980.32 671.495 4980.32C719.27 4980.32 758 5019.16 758 5067.09C758 5087.86 750.724 5106.92 738.589 5121.86V5024.49H2.60309Z" fill="url(#paint10_linear_147_100)"/>
</g>
</g>
<rect width="767" height="593" transform="translate(0 5036)" fill="url(#paint11_linear_147_100)"/>
</g>
<defs>
<filter id="filter0_d_147_100" x="-436.523" y="21" width="1655.52" height="2425.79" filterUnits="userSpaceOnUse" color-interpolation-filters="sRGB">
<feFlood flood-opacity="0" result="BackgroundImageFix"/>
<feColorMatrix in="SourceAlpha" type="matrix" values="0 0 0 0 0 0 0 0 0 0 0 0 0 0 0 0 0 0 127 0" result="hardAlpha"/>
<feOffset dy="4"/>
<feGaussianBlur stdDeviation="2"/>
<feComposite in2="hardAlpha" operator="out"/>
<feColorMatrix type="matrix" values="0 0 0 0 0 0 0 0 0 0 0 0 0 0 0 0 0 0 0.25 0"/>
<feBlend mode="normal" in2="BackgroundImageFix" result="effect1_dropShadow_147_100"/>
<feBlend mode="normal" in="SourceGraphic" in2="effect1_dropShadow_147_100" result="shape"/>
</filter>
<radialGradient id="paint0_radial_147_100" cx="0" cy="0" r="1" gradientUnits="userSpaceOnUse" gradientTransform="translate(1000 961) rotate(180) scale(1000 358)">
<stop offset="0.817708" stop-color="#3A1C62"/>
<stop offset="1" stop-color="#0F0D64"/>
</radialGradient>
<linearGradient id="paint1_linear_147_100" x1="391.238" y1="0.101563" x2="391.238" y2="2628.39" gradientUnits="userSpaceOnUse">
<stop stop-color="white"/>
<stop offset="0.878625" stop-color="white" stop-opacity="0"/>
</linearGradient>
<linearGradient id="paint2_linear_147_100" x1="391.238" y1="21" x2="391.238" y2="2649.29" gradientUnits="userSpaceOnUse">
<stop stop-color="white"/>
<stop offset="0.878625" stop-color="white" stop-opacity="0"/>
</linearGradient>
<linearGradient id="paint3_linear_147_100" x1="383.5" y1="0" x2="383.5" y2="4674" gradientUnits="userSpaceOnUse">
<stop stop-color="#FAFAFB"/>
<stop offset="0.2776" stop-color="#E3D6E0"/>
<stop offset="0.520833" stop-color="#DC8E99"/>
<stop offset="0.697917" stop-color="#FEB4AD"/>
<stop offset="0.869792" stop-color="#F6E4E1"/>
<stop offset="1" stop-color="#FCBFB9"/>
</linearGradient>
<linearGradient id="paint4_linear_147_100" x1="374.213" y1="4337.22" x2="374.213" y2="4655.12" gradientUnits="userSpaceOnUse">
<stop stop-color="#020865"/>
<stop offset="1" stop-color="#3A1B61"/>
</linearGradient>
<linearGradient id="paint5_linear_147_100" x1="187.275" y1="4925.45" x2="230.69" y2="4980.35" gradientUnits="userSpaceOnUse">
<stop stop-color="#C19789"/>
<stop offset="1" stop-color="#F6E4E1" stop-opacity="0"/>
</linearGradient>
<linearGradient id="paint6_linear_147_100" x1="43.3802" y1="4969.44" x2="86.795" y2="5024.34" gradientUnits="userSpaceOnUse">
<stop stop-color="#C19789"/>
<stop offset="1" stop-color="#F6E4E1" stop-opacity="0"/>
</linearGradient>
<linearGradient id="paint7_linear_147_100" x1="563.045" y1="4893.71" x2="526.991" y2="4980.4" gradientUnits="userSpaceOnUse">
<stop stop-color="#C19789"/>
<stop offset="1" stop-color="#F6E4E1" stop-opacity="0"/>
</linearGradient>
<linearGradient id="paint8_linear_147_100" x1="697.237" y1="4933.48" x2="661.183" y2="5020.17" gradientUnits="userSpaceOnUse">
<stop stop-color="#C19789"/>
<stop offset="1" stop-color="#F6E4E1" stop-opacity="0"/>
</linearGradient>
<linearGradient id="paint9_linear_147_100" x1="373.585" y1="4811.17" x2="373.797" y2="5001.22" gradientUnits="userSpaceOnUse">
<stop stop-color="#F4F2F2"/>
<stop offset="1" stop-color="#F4F2F2" stop-opacity="0"/>
</linearGradient>
<linearGradient id="paint10_linear_147_100" x1="373.999" y1="4847.71" x2="373.999" y2="5085.44" gradientUnits="userSpaceOnUse">
<stop stop-color="#050965"/>
<stop offset="1" stop-color="#050965" stop-opacity="0"/>
</linearGradient>
<linearGradient id="paint11_linear_147_100" x1="383.5" y1="0" x2="383.5" y2="593" gradientUnits="userSpaceOnUse">
<stop stop-color="#FDBFB9"/>
<stop offset="0.193929" stop-color="#FEB3AC"/>
<stop offset="0.477234" stop-color="#BB7F92"/>
<stop offset="1" stop-color="#3E1E63"/>
</linearGradient>
<clipPath id="clip0_147_100">
<rect width="767" height="5629" fill="white"/>
</clipPath>
<clipPath id="clip1_147_100">
<rect width="767" height="362" fill="white"/>
</clipPath>
<clipPath id="clip2_147_100">
<rect width="767" height="4674" fill="white" transform="translate(0 362)"/>
</clipPath>
<clipPath id="clip3_147_100">
<rect width="768" height="688.246" fill="white" transform="translate(-10 4336.38)"/>
</clipPath>
</defs>
</svg>
