<svg width="991" height="5623" viewBox="0 0 991 5623" fill="none" xmlns="http://www.w3.org/2000/svg">
<g clip-path="url(#clip0_147_3)">
<g clip-path="url(#clip1_147_3)">
<rect width="2000" height="4382" transform="translate(-504 -600)" fill="url(#paint0_radial_147_3)"/>
<path fill-rule="evenodd" clip-rule="evenodd" d="M351.07 0.101562C280.716 0.101562 220.516 39.4275 195.865 95.1053C185.992 82.2455 169.546 73.8262 150.927 73.8262C120.73 73.8262 96.25 95.971 96.25 123.288C96.25 123.554 96.2523 123.819 96.2569 124.084C54.8561 130.604 20.2619 155.057 2.61273 188.273C-6.99628 186.66 -16.9041 185.816 -27.0297 185.816C-87.1969 185.816 -139.677 215.59 -167.449 259.738C-252.723 263.681 -320.523 327.477 -320.523 405.598C-320.523 433.802 -311.686 460.14 -296.379 482.467V2417.89H1284.19V583.281C1311.25 546.074 1327 501.53 1327 453.66C1327 384.19 1293.83 321.727 1241.05 278.522C1241.26 276.422 1241.37 274.294 1241.37 272.142C1241.37 237.7 1213.31 209.187 1176.74 204.291C1170.74 156.089 1125.53 118.625 1070.64 118.625C1032.94 118.625 999.797 136.304 980.798 163C966.972 146.259 944.893 135.422 920.016 135.422C903.802 135.422 888.777 140.026 876.45 147.867C850.136 139.798 821.937 135.422 792.609 135.422C789.298 135.422 786.002 135.478 782.721 135.588C769.739 114.967 745.277 101.028 717.203 100.892C703.382 87.6741 683.81 79.4277 662.11 79.4277C651.096 79.4277 640.63 81.5523 631.186 85.3731C618.169 64.5509 593.468 50.4961 565.138 50.4961C537.737 50.4961 513.732 63.6435 500.409 83.3451C472.905 33.97 416.36 0.101562 351.07 0.101562Z" fill="url(#paint1_linear_147_3)"/>
<g filter="url(#filter0_d_147_3)">
<path fill-rule="evenodd" clip-rule="evenodd" d="M351.07 21C280.716 21 220.516 60.326 195.865 116.004C185.992 103.144 169.546 94.7246 150.927 94.7246C120.73 94.7246 96.25 116.869 96.25 144.187C96.25 144.452 96.2523 144.717 96.2569 144.982C54.8561 151.502 20.2619 175.956 2.61273 209.171C-6.99628 207.558 -16.9041 206.715 -27.0297 206.715C-87.1969 206.715 -139.677 236.488 -167.449 280.637C-252.723 284.579 -320.523 348.375 -320.523 426.496C-320.523 454.701 -311.686 481.038 -296.379 503.366V2438.79H1284.19V604.18C1311.25 566.972 1327 522.429 1327 474.558C1327 405.088 1293.83 342.626 1241.05 299.421C1241.26 297.32 1241.37 295.192 1241.37 293.041C1241.37 258.599 1213.31 230.086 1176.74 225.19C1170.74 176.987 1125.53 139.523 1070.64 139.523C1032.94 139.523 999.797 157.203 980.798 183.898C966.972 167.158 944.893 156.32 920.016 156.32C903.802 156.32 888.777 160.924 876.45 168.766C850.136 160.696 821.937 156.32 792.609 156.32C789.298 156.32 786.002 156.376 782.721 156.487C769.739 135.865 745.277 121.927 717.203 121.79C703.382 108.573 683.81 100.326 662.11 100.326C651.096 100.326 640.63 102.451 631.186 106.272C618.169 85.4493 593.468 71.3945 565.138 71.3945C537.737 71.3945 513.732 84.5419 500.409 104.244C472.905 54.8684 416.36 21 351.07 21Z" fill="url(#paint2_linear_147_3)" shape-rendering="crispEdges"/>
</g>
</g>
<g clip-path="url(#clip2_147_3)">
<rect width="991" height="4670" transform="translate(0 361)" fill="url(#paint3_linear_147_3)"/>
<g clip-path="url(#clip3_147_3)">
<ellipse cx="495.503" cy="3683.97" rx="78.5034" ry="283.974" fill="#DDC3E9"/>
<path fill-rule="evenodd" clip-rule="evenodd" d="M573.007 3714.97C573.007 3838.26 551.289 3943.19 520.939 3982.45L562.489 4100.78H527.404L542.537 4142.74H511.537H503.054H481.537H472.054H442.054L457.187 4100.78H426.517L468.068 3982.45C437.717 3943.19 416 3838.26 416 3714.97C416 3558.14 451.147 3431 494.503 3431C537.86 3431 573.007 3558.14 573.007 3714.97ZM466.404 4100.78L476.795 4129.59L487.187 4100.78H466.404ZM496.404 4100.78L507.295 4130.98L518.187 4100.78H496.404Z" fill="url(#paint4_linear_147_3)"/>
<ellipse cx="132" cy="4926.38" rx="205" ry="205.623" fill="url(#paint5_linear_147_3)"/>
<ellipse cx="859" cy="4926.38" rx="205" ry="205.623" fill="url(#paint6_linear_147_3)"/>
<ellipse cx="1177" cy="5020.62" rx="205" ry="205.623" fill="url(#paint7_linear_147_3)"/>
<path fill-rule="evenodd" clip-rule="evenodd" d="M441.71 4142L322.235 4655.01C303.512 4647.9 283.21 4644 262 4644C168.112 4644 92 4720.34 92 4814.52C92 4816.98 92.0522 4819.44 92.1556 4821.88C64.8081 4803.03 31.6883 4792 -4 4792C-97.8884 4792 -174 4868.34 -174 4962.52C-174 5056.69 -97.8884 5133.03 -4 5133.03C89.8884 5133.03 166 5056.69 166 4962.52C166 4960.05 165.948 4957.6 165.844 4955.15C193.192 4974 226.312 4985.03 262 4985.03C311.299 4985.03 355.697 4963.98 386.749 4930.36C417.044 4958.4 457.528 4975.53 502 4975.53C541.369 4975.53 577.612 4962.1 606.429 4939.57C636.76 4967.78 677.372 4985.03 722 4985.03C766.358 4985.03 806.749 4967.99 837.019 4940.08C838.386 5033.07 913.965 5108.03 1007 5108.03C1100.89 5108.03 1177 5031.69 1177 4937.52C1177 4843.34 1100.89 4767 1007 4767C962.642 4767 922.251 4784.04 891.981 4811.95C890.615 4718.96 815.035 4644 722 4644C702.742 4644 684.232 4647.21 666.973 4653.13L542.529 4142H441.71ZM374.47 4686.65H379.624C378.825 4687.48 378.034 4688.32 377.251 4689.17C376.334 4688.32 375.406 4687.48 374.47 4686.65Z" fill="url(#paint8_linear_147_3)"/>
<path fill-rule="evenodd" clip-rule="evenodd" d="M-413 5158.06V5117.18C-413.661 5123.91 -414 5130.73 -414 5137.62C-414 5144.52 -413.661 5151.34 -413 5158.06ZM-384.135 5030.69C-348.143 4971.51 -283.172 4932 -209 4932C-151.967 4932 -100.373 4955.36 -63.2114 4993.06C-40.0169 4905.02 39.9347 4840.12 135 4840.12C164.156 4840.12 191.891 4846.22 217.003 4857.23C259.453 4744.08 368.354 4663.58 496 4663.58C623.646 4663.58 732.547 4744.08 774.997 4857.23C800.109 4846.22 827.844 4840.12 857 4840.12C950.374 4840.12 1029.17 4902.73 1053.92 4988.39C1091.17 4949.91 1143.3 4926 1201 4926C1314.22 4926 1406 5018.06 1406 5131.62C1406 5180.85 1388.76 5226.03 1360 5261.43V5030.69H-384.135Z" fill="url(#paint9_linear_147_3)"/>
</g>
</g>
<rect width="991" height="593" transform="translate(0 5030)" fill="url(#paint10_linear_147_3)"/>
</g>
<defs>
<filter id="filter0_d_147_3" x="-324.523" y="21" width="1655.52" height="2425.79" filterUnits="userSpaceOnUse" color-interpolation-filters="sRGB">
<feFlood flood-opacity="0" result="BackgroundImageFix"/>
<feColorMatrix in="SourceAlpha" type="matrix" values="0 0 0 0 0 0 0 0 0 0 0 0 0 0 0 0 0 0 127 0" result="hardAlpha"/>
<feOffset dy="4"/>
<feGaussianBlur stdDeviation="2"/>
<feComposite in2="hardAlpha" operator="out"/>
<feColorMatrix type="matrix" values="0 0 0 0 0 0 0 0 0 0 0 0 0 0 0 0 0 0 0.25 0"/>
<feBlend mode="normal" in2="BackgroundImageFix" result="effect1_dropShadow_147_3"/>
<feBlend mode="normal" in="SourceGraphic" in2="effect1_dropShadow_147_3" result="shape"/>
</filter>
<radialGradient id="paint0_radial_147_3" cx="0" cy="0" r="1" gradientUnits="userSpaceOnUse" gradientTransform="translate(1000 961) rotate(180) scale(1000 358)">
<stop offset="0.817708" stop-color="#3A1C62"/>
<stop offset="1" stop-color="#0F0D64"/>
</radialGradient>
<linearGradient id="paint1_linear_147_3" x1="503.238" y1="0.101563" x2="503.238" y2="2628.39" gradientUnits="userSpaceOnUse">
<stop stop-color="white"/>
<stop offset="0.878625" stop-color="white" stop-opacity="0"/>
</linearGradient>
<linearGradient id="paint2_linear_147_3" x1="503.238" y1="21" x2="503.238" y2="2649.29" gradientUnits="userSpaceOnUse">
<stop stop-color="white"/>
<stop offset="0.878625" stop-color="white" stop-opacity="0"/>
</linearGradient>
<linearGradient id="paint3_linear_147_3" x1="495.5" y1="0" x2="495.5" y2="4670" gradientUnits="userSpaceOnUse">
<stop stop-color="#FAFAFB"/>
<stop offset="0.2776" stop-color="#E3D6E0"/>
<stop offset="0.520833" stop-color="#DC8E99"/>
<stop offset="0.697917" stop-color="#FEB4AD"/>
<stop offset="0.869792" stop-color="#F6E4E1"/>
<stop offset="1" stop-color="#FCBFB9"/>
</linearGradient>
<linearGradient id="paint4_linear_147_3" x1="496.503" y1="3401.99" x2="496.503" y2="4155.36" gradientUnits="userSpaceOnUse">
<stop stop-color="#020865"/>
<stop offset="1" stop-color="#3A1B61"/>
</linearGradient>
<linearGradient id="paint5_linear_147_3" x1="53.5" y1="4795.98" x2="156.384" y2="4926.07" gradientUnits="userSpaceOnUse">
<stop stop-color="#C19789"/>
<stop offset="1" stop-color="#F6E4E1" stop-opacity="0"/>
</linearGradient>
<linearGradient id="paint6_linear_147_3" x1="944" y1="4720.75" x2="858.559" y2="4926.19" gradientUnits="userSpaceOnUse">
<stop stop-color="#C19789"/>
<stop offset="1" stop-color="#F6E4E1" stop-opacity="0"/>
</linearGradient>
<linearGradient id="paint7_linear_147_3" x1="1262" y1="4815" x2="1176.56" y2="5020.44" gradientUnits="userSpaceOnUse">
<stop stop-color="#C19789"/>
<stop offset="1" stop-color="#F6E4E1" stop-opacity="0"/>
</linearGradient>
<linearGradient id="paint8_linear_147_3" x1="495" y1="4525.16" x2="495.503" y2="4975.53" gradientUnits="userSpaceOnUse">
<stop stop-color="#F4F2F2"/>
<stop offset="1" stop-color="#F4F2F2" stop-opacity="0"/>
</linearGradient>
<linearGradient id="paint9_linear_147_3" x1="495.998" y1="4611.75" x2="495.998" y2="5175.13" gradientUnits="userSpaceOnUse">
<stop stop-color="#050965"/>
<stop offset="1" stop-color="#050965" stop-opacity="0"/>
</linearGradient>
<linearGradient id="paint10_linear_147_3" x1="495.5" y1="0" x2="495.5" y2="593" gradientUnits="userSpaceOnUse">
<stop stop-color="#FDBFB9"/>
<stop offset="0.193929" stop-color="#FEB3AC"/>
<stop offset="0.477234" stop-color="#BB7F92"/>
<stop offset="1" stop-color="#3E1E63"/>
</linearGradient>
<clipPath id="clip0_147_3">
<rect width="991" height="5623" fill="white"/>
</clipPath>
<clipPath id="clip1_147_3">
<rect width="991" height="362" fill="white"/>
</clipPath>
<clipPath id="clip2_147_3">
<rect width="991" height="4670" fill="white" transform="translate(0 361)"/>
</clipPath>
<clipPath id="clip3_147_3">
<rect width="1820" height="1631" fill="white" transform="translate(-414 3400)"/>
</clipPath>
</defs>
</svg>
