<svg width="1584" height="3770" viewBox="0 0 1584 3770" fill="none" xmlns="http://www.w3.org/2000/svg">
<g clip-path="url(#clip0_117_609)">
<g clip-path="url(#clip1_117_609)">
<rect width="2000" height="4382" transform="translate(-208 -600)" fill="url(#paint0_radial_117_609)"/>
<path fill-rule="evenodd" clip-rule="evenodd" d="M647.07 0.101562C576.716 0.101562 516.516 39.4275 491.865 95.1053C481.992 82.2455 465.546 73.8262 446.927 73.8262C416.73 73.8262 392.25 95.971 392.25 123.288C392.25 123.554 392.252 123.819 392.257 124.084C350.856 130.604 316.262 155.057 298.613 188.273C289.004 186.66 279.096 185.816 268.97 185.816C208.803 185.816 156.323 215.59 128.551 259.738C43.2772 263.681 -24.5234 327.477 -24.5234 405.598C-24.5234 433.802 -15.6858 460.14 -0.37886 482.467V2417.89H1580.19V583.281C1607.25 546.074 1623 501.53 1623 453.66C1623 384.19 1589.83 321.727 1537.05 278.522C1537.26 276.422 1537.37 274.294 1537.37 272.142C1537.37 237.7 1509.31 209.187 1472.74 204.291C1466.74 156.089 1421.53 118.625 1366.64 118.625C1328.94 118.625 1295.8 136.304 1276.8 163C1262.97 146.259 1240.89 135.422 1216.02 135.422C1199.8 135.422 1184.78 140.026 1172.45 147.867C1146.14 139.798 1117.94 135.422 1088.61 135.422C1085.3 135.422 1082 135.478 1078.72 135.588C1065.74 114.967 1041.28 101.028 1013.2 100.892C999.382 87.6741 979.81 79.4277 958.11 79.4277C947.096 79.4277 936.63 81.5523 927.186 85.3731C914.169 64.5509 889.468 50.4961 861.138 50.4961C833.737 50.4961 809.732 63.6435 796.409 83.3451C768.905 33.97 712.36 0.101562 647.07 0.101562Z" fill="url(#paint1_linear_117_609)"/>
<g filter="url(#filter0_d_117_609)">
<path fill-rule="evenodd" clip-rule="evenodd" d="M647.07 21C576.716 21 516.516 60.326 491.865 116.004C481.992 103.144 465.546 94.7246 446.927 94.7246C416.73 94.7246 392.25 116.869 392.25 144.187C392.25 144.452 392.252 144.717 392.257 144.982C350.856 151.502 316.262 175.956 298.613 209.171C289.004 207.558 279.096 206.715 268.97 206.715C208.803 206.715 156.323 236.488 128.551 280.637C43.2772 284.579 -24.5234 348.375 -24.5234 426.496C-24.5234 454.701 -15.6858 481.038 -0.37886 503.366V2438.79H1580.19V604.18C1607.25 566.972 1623 522.429 1623 474.558C1623 405.088 1589.83 342.626 1537.05 299.421C1537.26 297.32 1537.37 295.192 1537.37 293.041C1537.37 258.599 1509.31 230.086 1472.74 225.19C1466.74 176.987 1421.53 139.523 1366.64 139.523C1328.94 139.523 1295.8 157.203 1276.8 183.898C1262.97 167.158 1240.89 156.32 1216.02 156.32C1199.8 156.32 1184.78 160.924 1172.45 168.766C1146.14 160.696 1117.94 156.32 1088.61 156.32C1085.3 156.32 1082 156.376 1078.72 156.487C1065.74 135.865 1041.28 121.927 1013.2 121.79C999.382 108.573 979.81 100.326 958.11 100.326C947.096 100.326 936.63 102.451 927.186 106.272C914.169 85.4493 889.468 71.3945 861.138 71.3945C833.737 71.3945 809.732 84.5419 796.409 104.244C768.905 54.8684 712.36 21 647.07 21Z" fill="url(#paint2_linear_117_609)" shape-rendering="crispEdges"/>
</g>
</g>
<g clip-path="url(#clip2_117_609)">
<rect width="1584" height="2817" transform="translate(0 361)" fill="url(#paint3_linear_117_609)"/>
<g clip-path="url(#clip3_117_609)">
<ellipse cx="791.503" cy="1830.97" rx="78.5034" ry="283.974" fill="#DDC3E9"/>
<path fill-rule="evenodd" clip-rule="evenodd" d="M869.007 1861.97C869.007 1985.26 847.289 2090.19 816.939 2129.45L858.489 2247.78H823.404L838.537 2289.74H807.537H799.054H777.537H768.054H738.054L753.187 2247.78H722.517L764.068 2129.45C733.717 2090.19 712 1985.26 712 1861.97C712 1705.14 747.147 1578 790.503 1578C833.86 1578 869.007 1705.14 869.007 1861.97ZM762.404 2247.78L772.795 2276.59L783.187 2247.78H762.404ZM792.404 2247.78L803.295 2277.98L814.187 2247.78H792.404Z" fill="url(#paint4_linear_117_609)"/>
<ellipse cx="428" cy="3073.38" rx="205" ry="205.623" fill="url(#paint5_linear_117_609)"/>
<ellipse cx="87" cy="3177.62" rx="205" ry="205.623" fill="url(#paint6_linear_117_609)"/>
<ellipse cx="1155" cy="3073.38" rx="205" ry="205.623" fill="url(#paint7_linear_117_609)"/>
<ellipse cx="1473" cy="3167.62" rx="205" ry="205.623" fill="url(#paint8_linear_117_609)"/>
<path fill-rule="evenodd" clip-rule="evenodd" d="M737.71 2289L618.235 2802.01C599.512 2794.9 579.21 2791 558 2791C464.112 2791 388 2867.34 388 2961.52C388 2963.98 388.052 2966.44 388.156 2968.88C360.808 2950.03 327.688 2939 292 2939C198.112 2939 122 3015.34 122 3109.52C122 3203.69 198.112 3280.03 292 3280.03C385.888 3280.03 462 3203.69 462 3109.52C462 3107.05 461.948 3104.6 461.844 3102.15C489.192 3121 522.312 3132.03 558 3132.03C607.299 3132.03 651.697 3110.98 682.749 3077.36C713.044 3105.4 753.528 3122.53 798 3122.53C837.369 3122.53 873.612 3109.1 902.429 3086.57C932.76 3114.78 973.372 3132.03 1018 3132.03C1062.36 3132.03 1102.75 3114.99 1133.02 3087.08C1134.39 3180.07 1209.97 3255.03 1303 3255.03C1396.89 3255.03 1473 3178.69 1473 3084.52C1473 2990.34 1396.89 2914 1303 2914C1258.64 2914 1218.25 2931.04 1187.98 2958.95C1186.61 2865.96 1111.03 2791 1018 2791C998.742 2791 980.232 2794.21 962.973 2800.13L838.529 2289H737.71ZM670.47 2833.65H675.624C674.825 2834.48 674.034 2835.32 673.251 2836.17C672.334 2835.32 671.406 2834.48 670.47 2833.65Z" fill="url(#paint9_linear_117_609)"/>
<path fill-rule="evenodd" clip-rule="evenodd" d="M-117 3305.06V3264.18C-117.661 3270.91 -118 3277.73 -118 3284.62C-118 3291.52 -117.661 3298.34 -117 3305.06ZM-88.1354 3177.69C-52.1429 3118.51 12.8284 3079 87 3079C144.033 3079 195.627 3102.36 232.789 3140.06C255.983 3052.02 335.935 2987.12 431 2987.12C460.156 2987.12 487.891 2993.22 513.003 3004.23C555.453 2891.08 664.354 2810.58 792 2810.58C919.646 2810.58 1028.55 2891.08 1071 3004.23C1096.11 2993.22 1123.84 2987.12 1153 2987.12C1246.37 2987.12 1325.17 3049.73 1349.92 3135.39C1387.17 3096.91 1439.3 3073 1497 3073C1610.22 3073 1702 3165.06 1702 3278.62C1702 3327.85 1684.76 3373.03 1656 3408.43V3177.69H-88.1354Z" fill="url(#paint10_linear_117_609)"/>
</g>
</g>
<rect width="1584" height="593" transform="translate(0 3177)" fill="url(#paint11_linear_117_609)"/>
</g>
<defs>
<filter id="filter0_d_117_609" x="-28.5234" y="21" width="1655.52" height="2425.79" filterUnits="userSpaceOnUse" color-interpolation-filters="sRGB">
<feFlood flood-opacity="0" result="BackgroundImageFix"/>
<feColorMatrix in="SourceAlpha" type="matrix" values="0 0 0 0 0 0 0 0 0 0 0 0 0 0 0 0 0 0 127 0" result="hardAlpha"/>
<feOffset dy="4"/>
<feGaussianBlur stdDeviation="2"/>
<feComposite in2="hardAlpha" operator="out"/>
<feColorMatrix type="matrix" values="0 0 0 0 0 0 0 0 0 0 0 0 0 0 0 0 0 0 0.25 0"/>
<feBlend mode="normal" in2="BackgroundImageFix" result="effect1_dropShadow_117_609"/>
<feBlend mode="normal" in="SourceGraphic" in2="effect1_dropShadow_117_609" result="shape"/>
</filter>
<radialGradient id="paint0_radial_117_609" cx="0" cy="0" r="1" gradientUnits="userSpaceOnUse" gradientTransform="translate(1000 961) rotate(180) scale(1000 358)">
<stop offset="0.817708" stop-color="#3A1C62"/>
<stop offset="1" stop-color="#0F0D64"/>
</radialGradient>
<linearGradient id="paint1_linear_117_609" x1="799.238" y1="0.101563" x2="799.238" y2="2628.39" gradientUnits="userSpaceOnUse">
<stop stop-color="white"/>
<stop offset="0.878625" stop-color="white" stop-opacity="0"/>
</linearGradient>
<linearGradient id="paint2_linear_117_609" x1="799.238" y1="21" x2="799.238" y2="2649.29" gradientUnits="userSpaceOnUse">
<stop stop-color="white"/>
<stop offset="0.878625" stop-color="white" stop-opacity="0"/>
</linearGradient>
<linearGradient id="paint3_linear_117_609" x1="792" y1="0" x2="792" y2="2817" gradientUnits="userSpaceOnUse">
<stop stop-color="#FAFAFB"/>
<stop offset="0.2776" stop-color="#E3D6E0"/>
<stop offset="0.520833" stop-color="#DC8E99"/>
<stop offset="0.697917" stop-color="#FEB4AD"/>
<stop offset="0.869792" stop-color="#F6E4E1"/>
<stop offset="1" stop-color="#FCBFB9"/>
</linearGradient>
<linearGradient id="paint4_linear_117_609" x1="792.503" y1="1548.99" x2="792.503" y2="2302.36" gradientUnits="userSpaceOnUse">
<stop stop-color="#020865"/>
<stop offset="1" stop-color="#3A1B61"/>
</linearGradient>
<linearGradient id="paint5_linear_117_609" x1="349.5" y1="2942.98" x2="452.384" y2="3073.07" gradientUnits="userSpaceOnUse">
<stop stop-color="#C19789"/>
<stop offset="1" stop-color="#F6E4E1" stop-opacity="0"/>
</linearGradient>
<linearGradient id="paint6_linear_117_609" x1="8.50001" y1="3047.23" x2="111.384" y2="3177.32" gradientUnits="userSpaceOnUse">
<stop stop-color="#C19789"/>
<stop offset="1" stop-color="#F6E4E1" stop-opacity="0"/>
</linearGradient>
<linearGradient id="paint7_linear_117_609" x1="1240" y1="2867.75" x2="1154.56" y2="3073.19" gradientUnits="userSpaceOnUse">
<stop stop-color="#C19789"/>
<stop offset="1" stop-color="#F6E4E1" stop-opacity="0"/>
</linearGradient>
<linearGradient id="paint8_linear_117_609" x1="1558" y1="2962" x2="1472.56" y2="3167.44" gradientUnits="userSpaceOnUse">
<stop stop-color="#C19789"/>
<stop offset="1" stop-color="#F6E4E1" stop-opacity="0"/>
</linearGradient>
<linearGradient id="paint9_linear_117_609" x1="791" y1="2672.16" x2="791.503" y2="3122.53" gradientUnits="userSpaceOnUse">
<stop stop-color="#F4F2F2"/>
<stop offset="1" stop-color="#F4F2F2" stop-opacity="0"/>
</linearGradient>
<linearGradient id="paint10_linear_117_609" x1="791.998" y1="2758.75" x2="791.998" y2="3322.13" gradientUnits="userSpaceOnUse">
<stop stop-color="#050965"/>
<stop offset="1" stop-color="#050965" stop-opacity="0"/>
</linearGradient>
<linearGradient id="paint11_linear_117_609" x1="792" y1="0" x2="792" y2="593" gradientUnits="userSpaceOnUse">
<stop stop-color="#FDBFB9"/>
<stop offset="0.193929" stop-color="#FEB3AC"/>
<stop offset="0.477234" stop-color="#BB7F92"/>
<stop offset="1" stop-color="#3E1E63"/>
</linearGradient>
<clipPath id="clip0_117_609">
<rect width="1584" height="3770" fill="white"/>
</clipPath>
<clipPath id="clip1_117_609">
<rect width="1584" height="362" fill="white"/>
</clipPath>
<clipPath id="clip2_117_609">
<rect width="1584" height="2817" fill="white" transform="translate(0 361)"/>
</clipPath>
<clipPath id="clip3_117_609">
<rect width="1820" height="1631" fill="white" transform="translate(-118 1547)"/>
</clipPath>
</defs>
</svg>
